FFprobe version SVN-rUNKNOWN, Copyright (c) 2007-2008 Stefano Sabatini
  libavutil version: 49.15.0
  libavcodec version: 52.20.1
  libavformat version: 52.31.0
  built on May 22 2010 15:12:14, gcc: 4.2.1 (Apple Inc. build 5646) (dot 1)
Input #0, ogg, from '/Users/philip/Projects/ffprobe/test/testcases/source.ogv':
  Duration: 00:00:05.66, start: 0.000000, bitrate: 241 kb/s
    Stream #0.0: Video: theora, yuv420p, 320x240, PAR 1:1 DAR 4:3, 49.58 tbr, 49.58 tbn, 49.58 tbc
    Stream #0.1: Audio: vorbis, 22050 Hz, stereo, s16
[FILE]
filename=/Users/philip/Projects/ffprobe/test/testcases/source.ogv
nb_streams=2
demuxer_name=ogg
demuxer_long_name=Ogg
start_time=0:00:00.000000 s
duration=0:00:05.665669 s
size=167.218 Kibyte
bit_rate=241.780 Kbit/s
[/FILE]
